<svg height="51" viewBox="0 0 93 51" width="93" xmlns="http://www.w3.org/2000/svg"><g fill="#fff" transform="translate(8 7)"><path d="m45.0141547 8.48728534c-1.8161154 0-3.2065788.65371119-4.2565206 1.56322246l.586454-2.7380078h-1.8728691c-1.9674584 0-3.6606077 1.37374092-4.0673419 3.2969782l-2.0998835 9.8530383c-.5675361 1.8000743-1.882328 3.1548671-3.2917093 3.1169708-.8323862-.0189482-1.4850527-.7295038-1.437758-1.5726965.0094589-.2747482.0567536-.5779186.141884-.9474075l2.7336321-12.48683129-2.1944728.29369634c-1.9201638.25580003-3.4619701 1.69585945-3.8687043 3.59067455l-1.7688208 7.9108529c-.1797198.8716149-.293227 1.6769113-.293227 2.3685188 0 3.0601263 1.7120672 4.3770228 3.8970811 4.3770228 1.305333 0 3.3390039-.3600149 5.1645783-2.3495707l-2.3647336 11.2362533 2.1944728-.2936963c1.9201637-.2558001 3.4619701-1.6958595 3.8687043-3.5906746l1.3337098-6.3192082c.3972752.6916075 1.2769562 1.3074224 3.0930716 1.3074224 7.0563653 0 8.9481522-7.9487492 8.9481522-12.8657943-.0094589-4.32965237-1.9769173-5.75076366-4.4456993-5.75076366zm-5.637525 15.46169086c-.8323863 0-1.2391205-.4358074-1.3810045-.8337186l2.1471782-10.2035791c.6905022-1.1653113 1.7120671-1.7811262 2.5066177-1.7811262.6526664 0 1.8161154.2179038 1.8161154 3.0222301 0 3.4106671-1.2674972 9.7961938-5.0889068 9.7961938z"/><path d="m74.7208656 8.70009211c-1.721172 0-3.2153763 1.20301032-3.5747419 2.89859179l-1.9292257 9.0178412c-.5485054 1.7145265-1.4942043 2.9838445-2.8370968 2.9838445-.832215 0-1.0875537-.7672743-1.0875537-1.6008563 0-.2936482.0378279-.6157139.1134838-.9093621l2.610129-12.39005909h-2.3453333c-1.683344 0-3.1397204 1.18406528-3.489629 2.83228419l-1.8724838 8.8662807c-.5579624 1.8376694-1.8819408 3.2301301-3.3194032 3.2017126-.832215-.0189451-1.4847473-.7293843-1.4374623-1.5724387.009457-.2747032.0567419-.5778239.1418548-.9472523l4.1799892-19.6744286-2.1940215.29364819c-1.9197688.2557581-3.461258 1.69558148-3.8679085 3.59008592l-3.2153763 15.09920039c-.1796828.8714721-.2931667 1.6766365-.2931667 2.3681306 0 3.0596247 1.711715 4.3763052 3.8962795 4.3763052 1.4847473 0 3.9151935-.4641535 5.9011612-3.2680201.3688226 2.2734053 1.9103118 3.2680201 3.8111667 3.2680201 1.2294085 0 2.8181827-.3220657 4.340758-2.0176472l-.6525323 2.974372c-.7187312 2.6712513-2.7519838 3.8932066-4.7379515 3.8932066-.9646129 0-1.9386828-.236813-2.2507634-.7388567-.4728495 1.8566143.0756559 4.8594039 5.18243 4.4331404s6.4307526-4.4141954 7.2818816-8.4873799l.3309946-1.6008563 3.5936559-16.88950709z"/><ellipse cx="29.928832" cy="4.359375" rx="2.95073" ry="2.953125" transform="matrix(.70710678 -.70710678 .70710678 .70710678 5.683408 22.439711)"/><path d="m12.6707507.84375c-6.77870863 0-12.6707507 4.35779265-12.6707507 9.04787886 0 2.33554904 2.18329714 3.19001814 4.46193477 3.19001814-.10487453-.3038112-.48623648-.7215517-.48623648-2.335549 0-5.21226179 4.03290259-8.32632713 8.74272261-8.32632713 3.5848023 0 5.3009311 1.78489111 5.3009311 6.92120009 0 5.70595504-2.1070248 13.23477764-5.6060206 14.45951674-.1430108.0284824-.5625089.180388-1.0106092.180388-2.20236524 0-1.65892447-2.0792083-1.65892447-2.0792083l3.84222157-17.83941695-2.0498204.22785844c-2.04982048.27532895-3.6992109 1.80387931-4.12824309 3.81662886l-3.95663019 18.44703945h2.64093148c1.22989227 0 2.32630787-.655093 2.93648698-1.6614678.61017912.7595282 1.95448002 2.050726 4.09010692 2.1076906h.1334766c6.1589955 0 9.791468-8.2788566 9.791468-15.8171733-.009534-5.6679787-3.5562001-10.3390767-10.3730449-10.3390767z"/></g></svg>